# xmcd
#
# Track frame offsets:
#	150
#	17067
#	34735
#	45877
#
# Disc length: 842 seconds
#
# Revision: 1
# Processed by: cddbd v1.5.1PL0 Copyright (c) Steve Scherf et al.
# Submitted via: CDex 1.50Beta5
#
DISCID=22034804
DTITLE=藍坊主 - 雫(しずく)
DYEAR=2003
DGENRE=Pop
TTITLE0=雫(しずく)
TTITLE1=冒険風
TTITLE2=殴れ
TTITLE3=おもいでの声
EXTD=
EXTT0=
EXTT1=
EXTT2=
EXTT3=
PLAYORDER=
